<svg
	width="100%"
	height="100%"
	viewBox="0 0 256 112"
	version="1.1"
	xmlns="http://www.w3.org/2000/svg"
	style="
		fill-rule: evenodd;
		clip-rule: evenodd;
		stroke-linejoin: round;
		stroke-miterlimit: 2;
	"
>
	<path
		id="wordmark"
		d="M256,8c-0,-2.122 -0.843,-4.157 -2.343,-5.657c-1.5,-1.5 -3.535,-2.343 -5.657,-2.343c-38.204,0 -201.796,0 -240,0c-2.122,-0 -4.157,0.843 -5.657,2.343c-1.5,1.5 -2.343,3.535 -2.343,5.657c0,20.617 0,75.383 0,96c0,2.122 0.843,4.157 2.343,5.657c1.5,1.5 3.535,2.343 5.657,2.343c38.204,0 201.796,-0 240,0c2.122,0 4.157,-0.843 5.657,-2.343c1.5,-1.5 2.343,-3.535 2.343,-5.657c0,-20.617 0,-75.383 0,-96Z"
		style="fill: rgb(15, 14, 23)"
	/>
	<clipPath id="_clip1">
		<path
			d="M256,8c-0,-2.122 -0.843,-4.157 -2.343,-5.657c-1.5,-1.5 -3.535,-2.343 -5.657,-2.343c-38.204,0 -201.796,0 -240,0c-2.122,-0 -4.157,0.843 -5.657,2.343c-1.5,1.5 -2.343,3.535 -2.343,5.657c0,20.617 0,75.383 0,96c0,2.122 0.843,4.157 2.343,5.657c1.5,1.5 3.535,2.343 5.657,2.343c38.204,0 201.796,-0 240,0c2.122,0 4.157,-0.843 5.657,-2.343c1.5,-1.5 2.343,-3.535 2.343,-5.657c0,-20.617 0,-75.383 0,-96Z"
		/>
	</clipPath>
	<g clip-path="url(#_clip1)">
		<path
			d="M103.641,62.075l-0.591,-0c-0.175,0.372 -0.388,0.728 -0.64,1.067c-0.252,0.339 -0.58,0.64 -0.985,0.903c-0.405,0.263 -0.887,0.471 -1.445,0.624c-0.558,0.153 -1.231,0.23 -2.019,0.23c-1.007,-0 -1.943,-0.181 -2.808,-0.542c-0.864,-0.361 -1.62,-0.898 -2.265,-1.609c-0.646,-0.712 -1.15,-1.582 -1.511,-2.611c-0.361,-1.028 -0.542,-2.211 -0.542,-3.546l0,-0.591c0,-1.313 0.192,-2.485 0.575,-3.513c0.383,-1.029 0.908,-1.9 1.576,-2.611c0.668,-0.711 1.445,-1.253 2.331,-1.625c0.887,-0.373 1.823,-0.559 2.808,-0.559c1.313,0 2.353,0.247 3.119,0.739c0.767,0.493 1.369,1.188 1.806,2.085l0.591,0l0,-2.364l4.138,0l-0,20.293c-0,0.744 -0.235,1.357 -0.706,1.839c-0.471,0.481 -1.078,0.722 -1.823,0.722l-10.967,0l0,-3.94l8.472,-0c0.591,-0 0.886,-0.329 0.886,-0.985l0,-4.006Zm-50.699,-13.595c0,-0.919 -0.356,-1.718 -1.067,-2.397c-0.711,-0.678 -1.713,-1.017 -3.005,-1.017c-1.094,-0 -1.959,0.224 -2.594,0.673c-0.634,0.448 -0.952,1.056 -0.952,1.822c0,0.394 0.077,0.75 0.23,1.067c0.153,0.318 0.421,0.602 0.804,0.854c0.384,0.252 0.887,0.476 1.511,0.673c0.624,0.197 1.417,0.383 2.381,0.558c2.408,0.438 4.246,1.172 5.516,2.2c1.27,1.029 1.905,2.551 1.905,4.565l-0,0.394c-0,1.072 -0.192,2.041 -0.575,2.906c-0.383,0.864 -0.936,1.603 -1.658,2.216c-0.723,0.613 -1.598,1.084 -2.627,1.412c-1.029,0.328 -2.189,0.493 -3.481,0.493c-1.51,-0 -2.84,-0.214 -3.989,-0.641c-1.15,-0.427 -2.107,-1.018 -2.874,-1.773c-0.766,-0.755 -1.346,-1.642 -1.74,-2.66c-0.394,-1.017 -0.591,-2.128 -0.591,-3.332l-0,-0.986l4.334,0l0,0.789c0,1.379 0.4,2.479 1.199,3.3c0.799,0.82 2.041,1.231 3.727,1.231c1.313,-0 2.287,-0.285 2.922,-0.854c0.635,-0.569 0.953,-1.248 0.953,-2.036c-0,-0.372 -0.066,-0.728 -0.197,-1.067c-0.132,-0.339 -0.362,-0.646 -0.69,-0.919c-0.328,-0.274 -0.777,-0.52 -1.346,-0.739c-0.569,-0.219 -1.292,-0.405 -2.168,-0.558c-1.16,-0.197 -2.221,-0.455 -3.185,-0.772c-0.963,-0.317 -1.8,-0.739 -2.512,-1.264c-0.711,-0.526 -1.264,-1.182 -1.658,-1.97c-0.394,-0.788 -0.591,-1.752 -0.591,-2.89l0,-0.197c0,-0.941 0.192,-1.811 0.575,-2.61c0.383,-0.799 0.919,-1.494 1.609,-2.086c0.689,-0.591 1.521,-1.05 2.495,-1.379c0.974,-0.328 2.063,-0.492 3.267,-0.492c1.358,-0 2.562,0.191 3.612,0.574c1.051,0.384 1.932,0.903 2.644,1.56c0.711,0.657 1.248,1.412 1.609,2.266c0.361,0.854 0.542,1.751 0.542,2.692l-0,1.183l-4.335,-0l0,-0.789Zm8.997,9.162c0.022,0.481 0.137,0.925 0.345,1.33c0.208,0.405 0.493,0.755 0.854,1.05c0.361,0.296 0.777,0.526 1.248,0.69c0.47,0.164 0.968,0.246 1.494,0.246c1.029,0 1.817,-0.18 2.364,-0.542c0.547,-0.361 0.941,-0.793 1.182,-1.297l3.546,1.971c-0.197,0.416 -0.47,0.848 -0.821,1.297c-0.35,0.448 -0.804,0.859 -1.362,1.231c-0.558,0.372 -1.237,0.679 -2.036,0.919c-0.799,0.241 -1.735,0.362 -2.808,0.362c-1.226,-0 -2.342,-0.197 -3.349,-0.591c-1.007,-0.394 -1.877,-0.964 -2.61,-1.708c-0.734,-0.744 -1.303,-1.653 -1.708,-2.725c-0.405,-1.073 -0.607,-2.288 -0.607,-3.645l-0,-0.197c-0,-1.248 0.213,-2.386 0.64,-3.415c0.427,-1.029 1.012,-1.905 1.757,-2.627c0.744,-0.722 1.614,-1.286 2.61,-1.691c0.996,-0.405 2.063,-0.608 3.202,-0.608c1.401,0 2.605,0.247 3.612,0.739c1.007,0.493 1.839,1.117 2.495,1.872c0.657,0.755 1.139,1.587 1.445,2.495c0.307,0.909 0.46,1.79 0.46,2.644l-0,2.2l-11.953,-0Zm50.109,-0c0.021,0.481 0.136,0.925 0.344,1.33c0.208,0.405 0.493,0.755 0.854,1.05c0.361,0.296 0.777,0.526 1.248,0.69c0.471,0.164 0.969,0.246 1.494,0.246c1.029,0 1.817,-0.18 2.364,-0.542c0.547,-0.361 0.941,-0.793 1.182,-1.297l3.547,1.971c-0.197,0.416 -0.471,0.848 -0.821,1.297c-0.351,0.448 -0.805,0.859 -1.363,1.231c-0.558,0.372 -1.237,0.679 -2.036,0.919c-0.799,0.241 -1.735,0.362 -2.807,0.362c-1.226,-0 -2.343,-0.197 -3.35,-0.591c-1.007,-0.394 -1.877,-0.964 -2.61,-1.708c-0.734,-0.744 -1.303,-1.653 -1.708,-2.725c-0.405,-1.073 -0.607,-2.288 -0.607,-3.645l-0,-0.197c-0,-1.248 0.213,-2.386 0.64,-3.415c0.427,-1.029 1.013,-1.905 1.757,-2.627c0.744,-0.722 1.614,-1.286 2.61,-1.691c0.996,-0.405 2.064,-0.608 3.202,-0.608c1.401,0 2.605,0.247 3.612,0.739c1.007,0.493 1.839,1.117 2.495,1.872c0.657,0.755 1.139,1.587 1.445,2.495c0.307,0.909 0.46,1.79 0.46,2.644l0,2.2l-11.952,-0Zm-25.35,4.433l-0.591,-0c-0.175,0.372 -0.389,0.728 -0.64,1.067c-0.252,0.339 -0.581,0.64 -0.986,0.903c-0.405,0.263 -0.886,0.471 -1.444,0.624c-0.559,0.153 -1.232,0.23 -2.02,0.23c-1.007,-0 -1.943,-0.181 -2.807,-0.542c-0.865,-0.361 -1.62,-0.898 -2.266,-1.609c-0.646,-0.712 -1.149,-1.582 -1.51,-2.611c-0.362,-1.028 -0.542,-2.211 -0.542,-3.546l-0,-0.591c-0,-1.313 0.191,-2.485 0.574,-3.513c0.383,-1.029 0.909,-1.9 1.577,-2.611c0.667,-0.711 1.444,-1.253 2.331,-1.625c0.886,-0.373 1.822,-0.559 2.807,-0.559c1.314,0 2.354,0.247 3.12,0.739c0.766,0.493 1.368,1.188 1.806,2.085l0.591,0l-0,-9.062l4.137,-0l0,22.985l-4.137,-0l-0,-2.364Zm12.609,-1.117c1.292,0 2.337,-0.41 3.136,-1.231c0.799,-0.821 1.198,-1.899 1.198,-3.234l0,-0.394c0,-1.336 -0.399,-2.414 -1.198,-3.235c-0.799,-0.821 -1.844,-1.231 -3.136,-1.231c-1.291,-0 -2.337,0.399 -3.136,1.198c-0.799,0.799 -1.198,1.888 -1.198,3.268l-0,0.394c-0,1.379 0.399,2.468 1.198,3.267c0.799,0.799 1.845,1.198 3.136,1.198Zm-16.943,0c1.291,0 2.336,-0.41 3.135,-1.231c0.799,-0.821 1.199,-1.899 1.199,-3.234l-0,-0.394c-0,-1.336 -0.4,-2.414 -1.199,-3.235c-0.799,-0.821 -1.844,-1.231 -3.135,-1.231c-1.292,-0 -2.337,0.399 -3.136,1.198c-0.799,0.799 -1.199,1.888 -1.199,3.268l0,0.394c0,1.379 0.4,2.468 1.199,3.267c0.799,0.799 1.844,1.198 3.136,1.198Zm-16.517,-9.522c-1.051,-0 -1.905,0.268 -2.561,0.804c-0.657,0.537 -1.084,1.155 -1.281,1.855l7.684,0c-0.132,-0.766 -0.542,-1.401 -1.232,-1.904c-0.689,-0.504 -1.559,-0.755 -2.61,-0.755Zm50.108,-0c-1.051,-0 -1.904,0.268 -2.561,0.804c-0.657,0.537 -1.084,1.155 -1.281,1.855l7.684,0c-0.131,-0.766 -0.542,-1.401 -1.231,-1.904c-0.69,-0.504 -1.56,-0.755 -2.611,-0.755Z"
			style="fill: rgb(207, 207, 173); fill-rule: nonzero"
		/>
		<path
			id="s"
			d="M151.401,68.857c-1.767,-1.775 -1.767,-4.653 0,-6.428c5.415,-5.44 16.668,-16.743 25.599,-25.715l0,-25.714c0,-0 -20.98,21.074 -35.198,35.357c-3.395,3.41 -5.302,8.035 -5.302,12.857c0,4.823 1.907,9.448 5.302,12.857c3.534,3.551 3.534,9.307 -0,12.858l-0,-0c3.534,3.55 9.265,3.55 12.799,-0c11.049,-11.099 33.315,-33.466 41.598,-41.786c1.767,-1.775 4.633,-1.775 6.4,-0c1.767,1.775 1.767,4.653 -0,6.428c-5.415,5.44 -16.668,16.743 -25.599,25.715l-0,25.714c-0,0 20.98,-21.074 35.198,-35.357c3.395,-3.41 5.302,-8.035 5.302,-12.857c-0,-4.823 -1.907,-9.448 -5.302,-12.857c-0.002,-0.003 -0.004,-0.005 -0.006,-0.007c-3.531,-3.547 -3.531,-9.297 -0,-12.844l0.006,-0.007c-3.534,-3.55 -9.265,-3.55 -12.799,0c-11.049,11.099 -33.315,33.466 -41.598,41.786c-1.767,1.775 -4.633,1.775 -6.4,0Z"
			style="fill: rgb(161, 134, 130)"
		/>
	</g>
</svg>
